<?xml version="1.0" encoding="UTF-8"?>
<svg xmlns="http://www.w3.org/2000/svg" version="1.1" width="100" height="100" viewBox="0 0 100 100"><rect x="0" y="0" width="100" height="100" fill="#ffffff"/><g transform="scale(4.762)"><g transform="translate(0,0)"><path fill-rule="evenodd" d="M8 0L8 1L9 1L9 0ZM12 0L12 2L11 2L11 1L10 1L10 2L11 2L11 3L10 3L10 4L9 4L9 6L8 6L8 8L9 8L9 6L10 6L10 7L11 7L11 5L13 5L13 0ZM11 3L11 4L10 4L10 5L11 5L11 4L12 4L12 3ZM12 6L12 7L13 7L13 6ZM0 8L0 10L1 10L1 11L0 11L0 12L2 12L2 13L4 13L4 12L6 12L6 13L8 13L8 14L9 14L9 16L8 16L8 18L9 18L9 19L8 19L8 21L9 21L9 19L11 19L11 20L10 20L10 21L11 21L11 20L12 20L12 21L14 21L14 20L13 20L13 19L14 19L14 18L15 18L15 19L17 19L17 20L15 20L15 21L17 21L17 20L19 20L19 21L20 21L20 20L21 20L21 18L19 18L19 19L17 19L17 17L18 17L18 16L19 16L19 15L21 15L21 13L20 13L20 12L21 12L21 8L20 8L20 10L19 10L19 9L18 9L18 10L17 10L17 9L15 9L15 8L14 8L14 9L12 9L12 8L10 8L10 9L9 9L9 10L10 10L10 11L8 11L8 10L6 10L6 9L7 9L7 8L6 8L6 9L5 9L5 8L3 8L3 9L2 9L2 8ZM1 9L1 10L2 10L2 12L3 12L3 10L2 10L2 9ZM4 9L4 11L5 11L5 9ZM14 9L14 10L13 10L13 11L15 11L15 9ZM16 10L16 11L17 11L17 10ZM6 11L6 12L8 12L8 11ZM11 11L11 12L9 12L9 14L12 14L12 15L11 15L11 16L9 16L9 17L10 17L10 18L12 18L12 17L13 17L13 16L14 16L14 15L15 15L15 18L16 18L16 16L18 16L18 15L19 15L19 14L18 14L18 13L19 13L19 12L20 12L20 11L18 11L18 12L17 12L17 13L15 13L15 14L12 14L12 13L11 13L11 12L12 12L12 11ZM20 16L20 17L21 17L21 16ZM19 19L19 20L20 20L20 19ZM0 0L0 7L7 7L7 0ZM1 1L1 6L6 6L6 1ZM2 2L2 5L5 5L5 2ZM14 0L14 7L21 7L21 0ZM15 1L15 6L20 6L20 1ZM16 2L16 5L19 5L19 2ZM0 14L0 21L7 21L7 14ZM1 15L1 20L6 20L6 15ZM2 16L2 19L5 19L5 16Z" fill="#000000"/></g></g></svg>
