<?xml version="1.0" encoding="UTF-8"?>
<svg xmlns="http://www.w3.org/2000/svg" version="1.1" width="100" height="100" viewBox="0 0 100 100"><rect x="0" y="0" width="100" height="100" fill="#ffffff"/><g transform="scale(4.762)"><g transform="translate(0,0)"><path fill-rule="evenodd" d="M8 0L8 1L9 1L9 0ZM10 0L10 2L8 2L8 5L9 5L9 6L8 6L8 7L9 7L9 6L10 6L10 7L11 7L11 8L8 8L8 9L7 9L7 8L6 8L6 9L4 9L4 8L0 8L0 10L1 10L1 9L3 9L3 10L2 10L2 12L1 12L1 11L0 11L0 13L4 13L4 11L3 11L3 10L5 10L5 11L7 11L7 10L8 10L8 11L10 11L10 12L8 12L8 14L9 14L9 15L10 15L10 17L8 17L8 21L9 21L9 20L10 20L10 21L11 21L11 20L10 20L10 19L9 19L9 18L12 18L12 19L13 19L13 21L14 21L14 19L16 19L16 18L17 18L17 19L18 19L18 17L17 17L17 15L18 15L18 16L19 16L19 15L20 15L20 17L19 17L19 18L20 18L20 17L21 17L21 10L19 10L19 8L16 8L16 9L18 9L18 10L17 10L17 11L14 11L14 12L15 12L15 13L14 13L14 14L15 14L15 16L12 16L12 17L11 17L11 15L13 15L13 14L12 14L12 13L13 13L13 12L12 12L12 10L15 10L15 9L14 9L14 8L13 8L13 5L12 5L12 4L13 4L13 3L12 3L12 1L13 1L13 0ZM10 2L10 4L9 4L9 5L11 5L11 4L12 4L12 3L11 3L11 2ZM11 6L11 7L12 7L12 6ZM20 8L20 9L21 9L21 8ZM6 9L6 10L7 10L7 9ZM10 9L10 11L11 11L11 9ZM18 10L18 11L17 11L17 12L16 12L16 13L15 13L15 14L16 14L16 15L17 15L17 13L19 13L19 14L20 14L20 12L18 12L18 11L19 11L19 10ZM5 12L5 13L7 13L7 12ZM10 12L10 13L9 13L9 14L10 14L10 15L11 15L11 13L12 13L12 12ZM12 17L12 18L13 18L13 19L14 19L14 17ZM15 17L15 18L16 18L16 17ZM19 19L19 20L18 20L18 21L20 21L20 20L21 20L21 19ZM16 20L16 21L17 21L17 20ZM0 0L0 7L7 7L7 0ZM1 1L1 6L6 6L6 1ZM2 2L2 5L5 5L5 2ZM14 0L14 7L21 7L21 0ZM15 1L15 6L20 6L20 1ZM16 2L16 5L19 5L19 2ZM0 14L0 21L7 21L7 14ZM1 15L1 20L6 20L6 15ZM2 16L2 19L5 19L5 16Z" fill="#000000"/></g></g></svg>
